<svg xmlns="http://www.w3.org/2000/svg" xmlns:xlink="http://www.w3.org/1999/xlink" width="188.822" height="48" viewBox="0 0 188.822 48"><defs><style>.a{fill-rule:evenodd;fill:url(#a);}.b{fill:none;}.c{fill:#041f58;}</style><linearGradient id="a" x1="0.5" x2="0.5" y2="1" gradientUnits="objectBoundingBox"><stop offset="0" stop-color="#b8d142"/><stop offset="1" stop-color="#062157"/></linearGradient></defs><g transform="translate(19552 4658)"><path class="a" d="M45,29.864a5.8,5.8,0,0,1-2.7,7.377c0,5.058-3.6,5.9-4.8,6.007-.2.105.1.422-.4,1.792a5.162,5.162,0,0,1-6.9,2.951c-.2-.105-.3-.105-.5-.211a5.04,5.04,0,0,1-7.4-.422,5.716,5.716,0,0,1-1-1.686,5.043,5.043,0,0,1-6.1-.211,3.973,3.973,0,0,1-1.9.527,4.52,4.52,0,0,1-3.8-1.581,4.022,4.022,0,0,1-.9-1.37c-.7-1.686,0-1.37-.7-1.581C5.4,40.824,4,38.822,4,35.976a4.988,4.988,0,0,1-2.4-6.534,5.392,5.392,0,0,1-1.2-5.8A6.4,6.4,0,0,1,.8,22.8a3.325,3.325,0,0,0,.6-.738c0-.738-.9-1.792,0-4a5.021,5.021,0,0,1,3-2.951A4.813,4.813,0,0,1,8.2,9.42h.1a4.8,4.8,0,0,1,2.6-3.478,4.06,4.06,0,0,1,3.8-.211,5.6,5.6,0,0,1,3.4-1.9,5.407,5.407,0,0,1,3.1.948A5.55,5.55,0,0,1,26.5,1.2a5.068,5.068,0,0,1,3.8,2.108,5.223,5.223,0,0,1,7.1,4.215,5.4,5.4,0,0,1,4.5,6.112.832.832,0,0,1-.1.422,5.57,5.57,0,0,1,3.3,3.161,5.662,5.662,0,0,1-.2,4.426C45.5,21.961,48.8,25.754,45,29.864ZM34.3,18.8a1.161,1.161,0,1,1-1.1,1.159A1.028,1.028,0,0,1,34.3,18.8Zm-3.9-4.637a.95.95,0,1,1-.9.948h0A.921.921,0,0,1,30.4,14.162Zm-2.9-5.8a.95.95,0,1,1-.9.948h0C26.7,8.788,27,8.366,27.5,8.366Zm0,31.931a.95.95,0,1,1-.9.948,1.083,1.083,0,0,1,.9-.948Zm5-5.269a.95.95,0,1,1-.9.948.921.921,0,0,1,.9-.948ZM36,29.654a.95.95,0,1,1-.9.948.921.921,0,0,1,.9-.948Zm0-2.108a3.06,3.06,0,0,1,0,6.112,2.939,2.939,0,0,1-2.7-2H30.1a1.89,1.89,0,0,1-1.5-.316,12.244,12.244,0,0,1-1.2-1.159l-1.2-1.265c-.8-.843-.9-.843-2.2-.843h-.5c0,.843-.1,2.213-.1,3.372a6.856,6.856,0,0,0,.1,1.581h2a12.655,12.655,0,0,1,2,0,1.212,1.212,0,0,1,1,.527l.1.105.4.527c.2.211.3.422.5.527h.3a2.893,2.893,0,0,1,3.8-1.581,3.175,3.175,0,0,1,1.5,4,2.811,2.811,0,0,1-3.8,1.581,3.079,3.079,0,0,1-1.6-1.792h0a1.4,1.4,0,0,1-1.7-.738l-.2-.211-.6-.738H23.5v3.583c0,.211.1.316.4.632l.4.422c.2.316.3.316.6.211h0a2.784,2.784,0,0,1,3.7-1.581,3.048,3.048,0,0,1,1.5,3.9,2.784,2.784,0,0,1-3.7,1.581A3.212,3.212,0,0,1,24.8,42.3h-.2a2.634,2.634,0,0,1-.9-.105,2.087,2.087,0,0,1-.6-.422l.1,1.9a3.129,3.129,0,0,0,1,2.424,3.292,3.292,0,0,0,2.2.738c1.6-.105,1.9-1.37,2.9-1.792.7-.211,1,1.265,3.1,1.159a3.054,3.054,0,0,0,2.8-2.74,1.882,1.882,0,0,0,.1-.738,1.327,1.327,0,0,0-.4-.843c-1-2.74.6-2.318,2.4-.316l1.4-.738a3.578,3.578,0,0,0,1.4-3.583c-.1-.843-.8-1.37.3-1.792a3.464,3.464,0,0,0,.9-.422,2.651,2.651,0,0,0,1.7-1.9c1-3.372-2.2-2.529-.5-3.794a4.693,4.693,0,0,0,1.2-1.265,4.344,4.344,0,0,0,.5-.948,3.636,3.636,0,0,0-.6-3.478c-.3-.422-1.1-.632-1.1-1.265,0-1.054.4-1.054.6-1.792a3.336,3.336,0,0,0,.1-2.213,3.462,3.462,0,0,0-2.3-2.318c-2.1-.527-1.6-1.054-1.2-2.213a2.969,2.969,0,0,0-1.6-3.794c-1.2-.632-1.9-.211-2.4-.738a1.01,1.01,0,0,0-.5-.422,3.231,3.231,0,0,0-3.1-3.372H32c-1.2,0-2.2,1.581-3.1.316a5.764,5.764,0,0,0-.7-.948,2.911,2.911,0,0,0-4.3-.105l-.3.316a4.025,4.025,0,0,0-.7,2.635v.422a3.909,3.909,0,0,0,.1.632v.105a1.8,1.8,0,0,1,.7-.527,2.365,2.365,0,0,1,.8-.105h.2a3.97,3.97,0,0,0-.2,1.159,3.921,3.921,0,0,0,.2,1.054h0c-.3,0-.3,0-.6.316l-.3.316a3.946,3.946,0,0,1-.5.422v4.426h1.9l.3-.316.4-.422.3-.316c.4-.527.6-.738,1.7-.738h.2A2.3,2.3,0,0,1,31.2,12.9a2.528,2.528,0,0,1,1.2,3.267,2.3,2.3,0,0,1-3.1,1.265,2.215,2.215,0,0,1-1.1-1.054h-.1c-.3,0-.3,0-.6.211l-.5.527a3.517,3.517,0,0,1-.9.843,1.892,1.892,0,0,1-1.1.105H23.3v4.321h1.1A12.441,12.441,0,0,1,26,20.7a7.857,7.857,0,0,0,.9-.948c.8-.948.9-.948,1.7-.843h2.8a2.922,2.922,0,0,1,3.7-1.686,3.05,3.05,0,0,1,1.6,3.9A2.922,2.922,0,0,1,33,22.8a3.212,3.212,0,0,1-1.6-1.686h-.2l-.2-.105a7.014,7.014,0,0,0-2.1,0,2.633,2.633,0,0,0-.8.632L26.8,23.12C25.5,24.7,25.1,24.7,24.1,24.6h-.6v1.37h.9c1.8,0,1.8,0,3,1.159l1.5,1.686.6.632.2.211h3.7A2.593,2.593,0,0,1,36,27.546ZM27.5,6.364a2.872,2.872,0,0,1,2.8,2.951,2.811,2.811,0,0,1-2.8,2.951,2.872,2.872,0,0,1-2.8-2.951h0a2.942,2.942,0,0,1,2.8-2.951ZM3.7,22.488c0-1.37-.7-.843-.7-2.74,0-1.37,1.6-2.845,2.5-2.529.6.211,2.5,2,3.2,2,.9,0,1.6-1.265.3-2.108l-2-1.37c-.3-.211-.5-.316-.6-.527a2.968,2.968,0,0,1,1.9-3.583c.1,1.9,2.7,4,4.3,4,.8,0,1.3.105,1.6-.527a.825.825,0,0,0,0-.948c-.4-.948-2.1-.105-3.3-1.686a3.01,3.01,0,0,1,.2-4.215A2.563,2.563,0,0,1,13,7.523c1.1,0,2,1.37,2.8.316.2-.316.4-.527.6-.843a2.511,2.511,0,0,1,3.8-.105l.3.316c.1.105.2.316.3.422V9.42c-3.8.948-5.4,5.164-3.3,5.48,1.3-.211.6-2.529,3.3-2.845v3.794c-1.7,0-3-.316-3,1.159,0,1.159,1.7.948,3,.948v4.321H17.7c-.3-3.688-5.9-5.48-5.9-3.372,0,.527,0,1.159.9,1.265a2.949,2.949,0,0,1,3,2.318c-1.7,0-3.9,2.74-3.9,4.531,0,.527-.1,1.792,1,1.792,1.7,0,.3-2.424,2.5-3.794a2.874,2.874,0,0,1,1.5-.527h4v1.792a5.948,5.948,0,0,0-1.2.527,5.134,5.134,0,0,0-1.5,1.475c-.6.843-2,4.11.1,4.11,1.4,0,.4-1.9,1.8-3.267a5.583,5.583,0,0,1,.8-.632v4.531c-.8.105-1.3.316-1.3,1.265,0,.632.6.843,1.3.948v1.9a3.487,3.487,0,0,1-1.7-2.529c-.1-.843-.1-1.265-.9-1.475-2.2-.422-1.3,5.164,2.6,6.218v3.478a2.8,2.8,0,0,1-.7.843,2.646,2.646,0,0,1-3,.316c-.8-.527-.7-.527-.7-1.686,0-3.161.4-5.375-1.2-7.482a5.151,5.151,0,0,0-1.6-1.37,3.468,3.468,0,0,0-1.1-.422c-.7-.211-1.7-.422-2.1.316a1.306,1.306,0,0,0-.1,1.054c.3.948,1.1.527,1.9.843A3.286,3.286,0,0,1,13.7,36.4a3.847,3.847,0,0,1,.4.948,40.164,40.164,0,0,1,.1,6.007,2.739,2.739,0,0,1-3.8-1.265,2.928,2.928,0,0,1-.3-1.265c0-.738.9-1.475,1.6-2.213,1.3-1.37.2-2.108-.5-2.108-.6,0-1.2.843-1.6,1.265a9.532,9.532,0,0,0-1.4,1.475A3.4,3.4,0,0,1,6.6,38.4c-1.8-1.9.3-3.583-1.2-4.215C4.1,33.658,3,33.447,3,30.918a3.218,3.218,0,0,1,.2-.948,5.261,5.261,0,0,0,4.5-4.848c0-.738.1-1.581-1.1-1.581-1.5,0-.2,2.318-2.4,3.794-1.1.738-1.8.527-2.3-.738a2.842,2.842,0,0,1,.6-3.056C3.1,23.331,3.7,23.12,3.7,22.488Z" transform="translate(-19552.021 -4659.195)"/><path class="b" d="M45,29.864a5.8,5.8,0,0,1-2.7,7.377c0,5.058-3.6,5.9-4.8,6.007-.2.105.1.422-.4,1.792a5.162,5.162,0,0,1-6.9,2.951c-.2-.105-.3-.105-.5-.211a5.04,5.04,0,0,1-7.4-.422,5.716,5.716,0,0,1-1-1.686,5.043,5.043,0,0,1-6.1-.211,3.973,3.973,0,0,1-1.9.527,4.52,4.52,0,0,1-3.8-1.581,4.022,4.022,0,0,1-.9-1.37c-.7-1.686,0-1.37-.7-1.581C5.4,40.824,4,38.822,4,35.976a4.988,4.988,0,0,1-2.4-6.534,5.392,5.392,0,0,1-1.2-5.8A6.4,6.4,0,0,1,.8,22.8a3.325,3.325,0,0,0,.6-.738c0-.738-.9-1.792,0-4a5.021,5.021,0,0,1,3-2.951A4.813,4.813,0,0,1,8.2,9.42h.1a4.8,4.8,0,0,1,2.6-3.478,4.06,4.06,0,0,1,3.8-.211,5.6,5.6,0,0,1,3.4-1.9,5.407,5.407,0,0,1,3.1.948A5.55,5.55,0,0,1,26.5,1.2a5.068,5.068,0,0,1,3.8,2.108,5.223,5.223,0,0,1,7.1,4.215,5.4,5.4,0,0,1,4.5,6.112.832.832,0,0,1-.1.422,5.57,5.57,0,0,1,3.3,3.161,5.662,5.662,0,0,1-.2,4.426C45.5,21.961,48.8,25.754,45,29.864ZM34.3,18.8a1.161,1.161,0,1,1-1.1,1.159A1.028,1.028,0,0,1,34.3,18.8Zm-3.9-4.637a.95.95,0,1,1-.9.948h0A.921.921,0,0,1,30.4,14.162Zm-2.9-5.8a.95.95,0,1,1-.9.948h0C26.7,8.788,27,8.366,27.5,8.366Zm0,31.931a.95.95,0,1,1-.9.948,1.083,1.083,0,0,1,.9-.948Zm5-5.269a.95.95,0,1,1-.9.948.921.921,0,0,1,.9-.948ZM36,29.654a.95.95,0,1,1-.9.948.921.921,0,0,1,.9-.948Zm0-2.108a3.06,3.06,0,0,1,0,6.112,2.939,2.939,0,0,1-2.7-2H30.1a1.89,1.89,0,0,1-1.5-.316,12.244,12.244,0,0,1-1.2-1.159l-1.2-1.265c-.8-.843-.9-.843-2.2-.843h-.5c0,.843-.1,2.213-.1,3.372a6.856,6.856,0,0,0,.1,1.581h2a12.655,12.655,0,0,1,2,0,1.212,1.212,0,0,1,1,.527l.1.105.4.527c.2.211.3.422.5.527h.3a2.893,2.893,0,0,1,3.8-1.581,3.175,3.175,0,0,1,1.5,4,2.811,2.811,0,0,1-3.8,1.581,3.079,3.079,0,0,1-1.6-1.792h0a1.4,1.4,0,0,1-1.7-.738l-.2-.211-.6-.738H23.5v3.583c0,.211.1.316.4.632l.4.422c.2.316.3.316.6.211h0a2.784,2.784,0,0,1,3.7-1.581,3.048,3.048,0,0,1,1.5,3.9,2.784,2.784,0,0,1-3.7,1.581A3.212,3.212,0,0,1,24.8,42.3h-.2a2.634,2.634,0,0,1-.9-.105,2.087,2.087,0,0,1-.6-.422l.1,1.9a3.129,3.129,0,0,0,1,2.424,3.292,3.292,0,0,0,2.2.738c1.6-.105,1.9-1.37,2.9-1.792.7-.211,1,1.265,3.1,1.159a3.054,3.054,0,0,0,2.8-2.74,1.882,1.882,0,0,0,.1-.738,1.327,1.327,0,0,0-.4-.843c-1-2.74.6-2.318,2.4-.316l1.4-.738a3.578,3.578,0,0,0,1.4-3.583c-.1-.843-.8-1.37.3-1.792a3.464,3.464,0,0,0,.9-.422,2.651,2.651,0,0,0,1.7-1.9c1-3.372-2.2-2.529-.5-3.794a4.693,4.693,0,0,0,1.2-1.265,4.344,4.344,0,0,0,.5-.948,3.636,3.636,0,0,0-.6-3.478c-.3-.422-1.1-.632-1.1-1.265,0-1.054.4-1.054.6-1.792a3.336,3.336,0,0,0,.1-2.213,3.462,3.462,0,0,0-2.3-2.318c-2.1-.527-1.6-1.054-1.2-2.213a2.969,2.969,0,0,0-1.6-3.794c-1.2-.632-1.9-.211-2.4-.738a1.01,1.01,0,0,0-.5-.422,3.231,3.231,0,0,0-3.1-3.372H32c-1.2,0-2.2,1.581-3.1.316a5.764,5.764,0,0,0-.7-.948,2.911,2.911,0,0,0-4.3-.105l-.3.316a4.025,4.025,0,0,0-.7,2.635v.422a3.909,3.909,0,0,0,.1.632v.105a1.8,1.8,0,0,1,.7-.527,2.365,2.365,0,0,1,.8-.105h.2a3.97,3.97,0,0,0-.2,1.159,3.921,3.921,0,0,0,.2,1.054h0c-.3,0-.3,0-.6.316l-.3.316a3.946,3.946,0,0,1-.5.422v4.426h1.9l.3-.316.4-.422.3-.316c.4-.527.6-.738,1.7-.738h.2A2.3,2.3,0,0,1,31.2,12.9a2.528,2.528,0,0,1,1.2,3.267,2.3,2.3,0,0,1-3.1,1.265,2.215,2.215,0,0,1-1.1-1.054h-.1c-.3,0-.3,0-.6.211l-.5.527a3.517,3.517,0,0,1-.9.843,1.892,1.892,0,0,1-1.1.105H23.3v4.321h1.1A12.441,12.441,0,0,1,26,20.7a7.857,7.857,0,0,0,.9-.948c.8-.948.9-.948,1.7-.843h2.8a2.922,2.922,0,0,1,3.7-1.686,3.05,3.05,0,0,1,1.6,3.9A2.922,2.922,0,0,1,33,22.8a3.212,3.212,0,0,1-1.6-1.686h-.2l-.2-.105a7.014,7.014,0,0,0-2.1,0,2.633,2.633,0,0,0-.8.632L26.8,23.12C25.5,24.7,25.1,24.7,24.1,24.6h-.6v1.37h.9c1.8,0,1.8,0,3,1.159l1.5,1.686.6.632.2.211h3.7A2.593,2.593,0,0,1,36,27.546ZM27.5,6.364a2.872,2.872,0,0,1,2.8,2.951,2.811,2.811,0,0,1-2.8,2.951,2.872,2.872,0,0,1-2.8-2.951h0a2.942,2.942,0,0,1,2.8-2.951ZM3.7,22.488c0-1.37-.7-.843-.7-2.74,0-1.37,1.6-2.845,2.5-2.529.6.211,2.5,2,3.2,2,.9,0,1.6-1.265.3-2.108l-2-1.37c-.3-.211-.5-.316-.6-.527a2.968,2.968,0,0,1,1.9-3.583c.1,1.9,2.7,4,4.3,4,.8,0,1.3.105,1.6-.527a.825.825,0,0,0,0-.948c-.4-.948-2.1-.105-3.3-1.686a3.01,3.01,0,0,1,.2-4.215A2.563,2.563,0,0,1,13,7.523c1.1,0,2,1.37,2.8.316.2-.316.4-.527.6-.843a2.511,2.511,0,0,1,3.8-.105l.3.316c.1.105.2.316.3.422V9.42c-3.8.948-5.4,5.164-3.3,5.48,1.3-.211.6-2.529,3.3-2.845v3.794c-1.7,0-3-.316-3,1.159,0,1.159,1.7.948,3,.948v4.321H17.7c-.3-3.688-5.9-5.48-5.9-3.372,0,.527,0,1.159.9,1.265a2.949,2.949,0,0,1,3,2.318c-1.7,0-3.9,2.74-3.9,4.531,0,.527-.1,1.792,1,1.792,1.7,0,.3-2.424,2.5-3.794a2.874,2.874,0,0,1,1.5-.527h4v1.792a5.948,5.948,0,0,0-1.2.527,5.134,5.134,0,0,0-1.5,1.475c-.6.843-2,4.11.1,4.11,1.4,0,.4-1.9,1.8-3.267a5.583,5.583,0,0,1,.8-.632v4.531c-.8.105-1.3.316-1.3,1.265,0,.632.6.843,1.3.948v1.9a3.487,3.487,0,0,1-1.7-2.529c-.1-.843-.1-1.265-.9-1.475-2.2-.422-1.3,5.164,2.6,6.218v3.478a2.8,2.8,0,0,1-.7.843,2.646,2.646,0,0,1-3,.316c-.8-.527-.7-.527-.7-1.686,0-3.161.4-5.375-1.2-7.482a5.151,5.151,0,0,0-1.6-1.37,3.468,3.468,0,0,0-1.1-.422c-.7-.211-1.7-.422-2.1.316a1.306,1.306,0,0,0-.1,1.054c.3.948,1.1.527,1.9.843A3.286,3.286,0,0,1,13.7,36.4a3.847,3.847,0,0,1,.4.948,40.164,40.164,0,0,1,.1,6.007,2.739,2.739,0,0,1-3.8-1.265,2.928,2.928,0,0,1-.3-1.265c0-.738.9-1.475,1.6-2.213,1.3-1.37.2-2.108-.5-2.108-.6,0-1.2.843-1.6,1.265a9.532,9.532,0,0,0-1.4,1.475A3.4,3.4,0,0,1,6.6,38.4c-1.8-1.9.3-3.583-1.2-4.215C4.1,33.658,3,33.447,3,30.918a3.218,3.218,0,0,1,.2-.948,5.261,5.261,0,0,0,4.5-4.848c0-.738.1-1.581-1.1-1.581-1.5,0-.2,2.318-2.4,3.794-1.1.738-1.8.527-2.3-.738a2.842,2.842,0,0,1,.6-3.056C3.1,23.331,3.7,23.12,3.7,22.488Z" transform="translate(-19552.021 -4659.195)"/><g transform="translate(-19497.051 -4644.792)"><path class="c" d="M51.9,23.7a11.409,11.409,0,0,1,.7-4.1,9.131,9.131,0,0,1,2-3.3A12.44,12.44,0,0,1,57.8,14a10,10,0,0,1,4.3-.8,12.921,12.921,0,0,1,2.9.3,25.824,25.824,0,0,1,2.6.8l-1.2,4.5a8.447,8.447,0,0,0-1.7-.5,6.816,6.816,0,0,0-2.1-.2,4.2,4.2,0,0,0-3.7,1.6,6.452,6.452,0,0,0-1.2,4.1A6.562,6.562,0,0,0,58.9,28c.8,1,2.1,1.5,4,1.5a17.96,17.96,0,0,0,2.2-.2,7.945,7.945,0,0,0,2.2-.6l.8,4.6a12.641,12.641,0,0,1-2.5.7,16.857,16.857,0,0,1-3.3.3,13.19,13.19,0,0,1-4.7-.8,8.306,8.306,0,0,1-3.2-2.2A8.944,8.944,0,0,1,52.5,28,15.4,15.4,0,0,1,51.9,23.7Z" transform="translate(-51.9 -13.2)"/></g><g transform="translate(-19480.23 -4644.796)"><path class="c" d="M87.3,23.7a11.765,11.765,0,0,1-.7,4.3,9.131,9.131,0,0,1-2,3.3,9.451,9.451,0,0,1-3.1,2.1,10.571,10.571,0,0,1-4,.8,10.191,10.191,0,0,1-4-.8,9.451,9.451,0,0,1-3.1-2.1,9.131,9.131,0,0,1-2-3.3,11.765,11.765,0,0,1-.7-4.3,11.765,11.765,0,0,1,.7-4.3,9.334,9.334,0,0,1,2.1-3.3A9.451,9.451,0,0,1,73.6,14a10.065,10.065,0,0,1,3.9-.8,10.571,10.571,0,0,1,4,.8,9.451,9.451,0,0,1,3.1,2.1,9.131,9.131,0,0,1,2,3.3A11.765,11.765,0,0,1,87.3,23.7Zm-5.7,0a7.121,7.121,0,0,0-1-4.1,3.75,3.75,0,0,0-6,0,7.115,7.115,0,0,0-1.1,4.1,7.7,7.7,0,0,0,1.1,4.2,3.75,3.75,0,0,0,6,0A8.684,8.684,0,0,0,81.6,23.7Z" transform="translate(-67.7 -13.2)"/></g><g transform="translate(-19458.096 -4642.944)"><path class="c" d="M107.4,32.1c0,3.4-.9,5.8-2.6,7.5-1.7,1.6-4.3,2.4-7.9,2.4a23.079,23.079,0,0,1-3.7-.3,19.953,19.953,0,0,1-3.5-.9l1-4.9a24.575,24.575,0,0,0,2.9.9,17.191,17.191,0,0,0,3.4.3,4.719,4.719,0,0,0,3.5-1.1,3.857,3.857,0,0,0,1-2.8v-.7a6.971,6.971,0,0,1-1.9.6,14.979,14.979,0,0,1-2.2.2c-2.8,0-5-.8-6.5-2.5a10.171,10.171,0,0,1-2.3-7,10.7,10.7,0,0,1,.7-4.1,11.555,11.555,0,0,1,2-3.2,7.934,7.934,0,0,1,3.3-2,12.317,12.317,0,0,1,4.4-.7,16.95,16.95,0,0,1,2.2.1c.7.1,1.5.2,2.2.3a15.525,15.525,0,0,1,2.1.4c.7.1,1.3.3,1.8.4V32.1ZM94.7,23.8c0,3.2,1.3,4.9,3.9,4.9a8.807,8.807,0,0,0,1.7-.2,8.93,8.93,0,0,0,1.3-.5V18.7a3.083,3.083,0,0,0-1-.1c-.4,0-.8-.1-1.4-.1A3.937,3.937,0,0,0,95.8,20,5.56,5.56,0,0,0,94.7,23.8Z" transform="translate(-88.6 -13.8)"/></g><g transform="translate(-19435.473 -4654.695)"><path class="c" d="M118.4,35.1a14.727,14.727,0,0,1-4.1-.5,5.473,5.473,0,0,1-2.5-1.4,4.767,4.767,0,0,1-1.2-2.2,13.576,13.576,0,0,1-.3-2.9V5.4l5.8-.9V26.8a6.15,6.15,0,0,0,.1,1.4,3.582,3.582,0,0,0,.4,1.1,1.978,1.978,0,0,0,1,.7,6.073,6.073,0,0,0,1.7.4Z" transform="translate(-110.3 -4.5)"/></g><g transform="translate(-19428.109 -4642.543)"><path class="c" d="M137.6,14.2c-1.2,4-2.4,7.7-3.7,11.1-1.3,3.5-2.7,6.8-4.2,10.1a20.382,20.382,0,0,1-1.6,3,6.969,6.969,0,0,1-1.8,2,9.409,9.409,0,0,1-2.2,1.2,11.935,11.935,0,0,1-2.9.4,9.518,9.518,0,0,1-2.5-.3,14.5,14.5,0,0,1-1.9-.6l1-4.6a5.349,5.349,0,0,0,1.6.4,7.569,7.569,0,0,0,1.5.1,3.649,3.649,0,0,0,2.4-.8,6.423,6.423,0,0,0,1.4-2.3c-1.3-2.6-2.7-5.5-4-8.8A98.791,98.791,0,0,1,117,14.2h6.2q.45,1.5.9,3.3c.4,1.2.7,2.4,1.1,3.6s.8,2.4,1.2,3.5.8,2.2,1.2,3.1c.3-.9.7-2,1.1-3.1s.7-2.3,1.1-3.5.7-2.4,1-3.6.6-2.3.9-3.3h5.9Z" transform="translate(-116.8 -14.2)"/></g><g transform="translate(-19406.303 -4650.079)"><path class="c" d="M137.8,9.1l5.8-.9v6h7V19h-7v7.2a5.96,5.96,0,0,0,.6,2.9,2.805,2.805,0,0,0,2.6,1.1,12.252,12.252,0,0,0,1.9-.2,7.756,7.756,0,0,0,1.8-.5l.8,4.5a15.457,15.457,0,0,1-2.3.7,14.492,14.492,0,0,1-3.2.3,10.65,10.65,0,0,1-3.9-.6,5.768,5.768,0,0,1-2.5-1.8,6.582,6.582,0,0,1-1.3-2.8,19.816,19.816,0,0,1-.4-3.6V9.1Z" transform="translate(-137.7 -8.2)"/></g><g transform="translate(-19390.277 -4654.295)"><path class="c" d="M158.9,8.3a3.04,3.04,0,0,1-1,2.5,3.65,3.65,0,0,1-4.8,0,3.04,3.04,0,0,1-1-2.5,3.04,3.04,0,0,1,1-2.5,3.65,3.65,0,0,1,4.8,0A3.04,3.04,0,0,1,158.9,8.3Zm-.5,26.4h-5.8V14.2h5.8Z" transform="translate(-152.1 -4.9)"/></g><g transform="translate(-19383.578 -4644.405)"><path class="c" d="M169,19.3l4-5.6h5.9L172,23.4a49.43,49.43,0,0,1,4.2,5.4q1.8,2.7,3,4.8H173c-.2-.4-.5-.9-.8-1.4a16.181,16.181,0,0,0-1-1.8c-.4-.6-.8-1.1-1.2-1.6l-1.2-1.2a11.985,11.985,0,0,0-1.2,1.1,5.826,5.826,0,0,0-1.1,1.5,16.181,16.181,0,0,0-1,1.8c-.3.6-.6,1.1-.9,1.6h-5.8a13.809,13.809,0,0,1,1.3-2.2c.5-.9,1.1-1.8,1.7-2.7s1.3-1.8,2-2.7,1.4-1.7,2.1-2.5q-1.8-2.7-3.6-5.1c-1.1-1.6-2.3-3.2-3.4-4.8H165Z" transform="translate(-158.8 -13.6)"/></g></g></svg>