<svg xmlns="http://www.w3.org/2000/svg" width="179.178" height="45.548" viewBox="0 0 179.178 45.548"><defs><style>.a,.c{fill:#fff;}.a{fill-rule:evenodd;}.b{fill:none;}</style></defs><g transform="translate(-0.021 -1.195)"><path class="a" d="M45,28.4c1.2,2.4.1,5.5-2.7,7,0,4.8-3.6,5.6-4.8,5.7-.2.1.1.4-.4,1.7a5.256,5.256,0,0,1-6.9,2.8c-.2-.1-.3-.1-.5-.2a5.224,5.224,0,0,1-7.4-.4,5.372,5.372,0,0,1-1-1.6,5.26,5.26,0,0,1-6.1-.2,4.136,4.136,0,0,1-1.9.5,4.641,4.641,0,0,1-3.8-1.5,3.805,3.805,0,0,1-.9-1.3c-.7-1.6,0-1.3-.7-1.5A4.93,4.93,0,0,1,4,34.2,4.629,4.629,0,0,1,1.6,28,4.929,4.929,0,0,1,.4,22.5a5.938,5.938,0,0,1,.4-.8c.2-.2.6-.6.6-.7,0-.7-.9-1.7,0-3.8a4.9,4.9,0,0,1,3-2.8A4.584,4.584,0,0,1,8.2,9h.1a4.583,4.583,0,0,1,2.6-3.3,4.252,4.252,0,0,1,3.8-.2,5.685,5.685,0,0,1,3.4-1.8,5.614,5.614,0,0,1,3.1.9,5.557,5.557,0,0,1,5.3-3.4,5.141,5.141,0,0,1,3.8,2,5.377,5.377,0,0,1,4.3.2,4.836,4.836,0,0,1,2.8,3.8A5.169,5.169,0,0,1,41.9,13a.756.756,0,0,1-.1.4,5.453,5.453,0,0,1,3.3,3,5.123,5.123,0,0,1-.2,4.2C45.5,20.9,48.8,24.5,45,28.4ZM34.3,17.9A1.1,1.1,0,1,1,33.2,19,1,1,0,0,1,34.3,17.9Zm-3.9-4.4a.9.9,0,1,1-.9.9h0A.9.9,0,0,1,30.4,13.5ZM27.5,8a.9.9,0,1,1-.9.9h0C26.7,8.4,27,8,27.5,8Zm0,30.3a.9.9,0,1,1-.9.9,1.055,1.055,0,0,1,.9-.9Zm5-5a.9.9,0,1,1-.9.9.9.9,0,0,1,.9-.9ZM36,28.2a.9.9,0,1,1-.9.9.9.9,0,0,1,.9-.9Zm0-2a2.9,2.9,0,1,1-2.7,3.9H30.1a1.971,1.971,0,0,1-1.5-.3,11.985,11.985,0,0,1-1.2-1.1l-1.2-1.2c-.8-.8-.9-.8-2.2-.8h-.5c0,.8-.1,2.1-.1,3.2a6.181,6.181,0,0,0,.1,1.5h2a13.333,13.333,0,0,1,2,0,1.231,1.231,0,0,1,1,.5l.1.1.4.5c.2.2.3.4.5.5h.3a2.889,2.889,0,0,1,5.3,2.3,2.864,2.864,0,0,1-3.8,1.5,2.982,2.982,0,0,1-1.6-1.7h0a1.43,1.43,0,0,1-1.7-.7l-.2-.2-.6-.7H23.5v3.4c0,.2.1.3.4.6l.4.4c.2.3.3.3.6.2h0a2.823,2.823,0,1,1,1.5,3.7,3.123,3.123,0,0,1-1.6-1.6h-.2a2.769,2.769,0,0,1-.9-.1,2.092,2.092,0,0,1-.6-.4l.1,1.8a2.9,2.9,0,0,0,1,2.3,3.408,3.408,0,0,0,2.2.7c1.6-.1,1.9-1.3,2.9-1.7.7-.2,1,1.2,3.1,1.1a2.986,2.986,0,0,0,2.8-2.6,1.7,1.7,0,0,0,.1-.7,1.234,1.234,0,0,0-.4-.8c-1-2.6.6-2.2,2.4-.3l1.4-.7a3.313,3.313,0,0,0,1.4-3.4c-.1-.8-.8-1.3.3-1.7a3.552,3.552,0,0,0,.9-.4A2.568,2.568,0,0,0,43,31.5c1-3.2-2.2-2.4-.5-3.6a4.561,4.561,0,0,0,1.2-1.2,4.053,4.053,0,0,0,.5-.9,3.311,3.311,0,0,0-.6-3.3c-.3-.4-1.1-.6-1.1-1.2,0-1,.4-1,.6-1.7a3.015,3.015,0,0,0,.1-2.1,3.378,3.378,0,0,0-2.3-2.2c-2.1-.5-1.6-1-1.2-2.1a2.77,2.77,0,0,0-1.6-3.6c-1.2-.6-1.9-.2-2.4-.7a1,1,0,0,0-.5-.4,3.137,3.137,0,0,0-3.1-3.2H32c-1.2,0-2.2,1.5-3.1.3a5.5,5.5,0,0,0-.7-.9,3.018,3.018,0,0,0-4.3-.1l-.3.3a3.675,3.675,0,0,0-.7,2.5v.4a3.536,3.536,0,0,0,.1.6v.1a1.794,1.794,0,0,1,.7-.5,2.485,2.485,0,0,1,.8-.1h.2A3.6,3.6,0,0,0,24.5,9a3.553,3.553,0,0,0,.2,1h0c-.3,0-.3,0-.6.3l-.3.3a3.908,3.908,0,0,1-.5.4v4.2h1.9l.3-.3.4-.4.3-.3c.4-.5.6-.7,1.7-.7h.2a2.351,2.351,0,1,1,1.2,3.1,2.168,2.168,0,0,1-1.1-1h-.1a.735.735,0,0,0-.6.2l-.5.5a3.45,3.45,0,0,1-.9.8,1.986,1.986,0,0,1-1.1.1H23.3v4.1h1.1A12.094,12.094,0,0,1,26,19.7a7.637,7.637,0,0,0,.9-.9c.8-.9.9-.9,1.7-.8h2.8a2.972,2.972,0,0,1,3.7-1.6,2.844,2.844,0,0,1,1.6,3.7A2.972,2.972,0,0,1,33,21.7a3.123,3.123,0,0,1-1.6-1.6h-.2L31,20a7.387,7.387,0,0,0-2.1,0,2.623,2.623,0,0,0-.8.6L26.8,22c-1.3,1.5-1.7,1.5-2.7,1.4h-.6v1.3h.9c1.8,0,1.8,0,3,1.1l1.5,1.6.6.6.2.2h3.7a2.567,2.567,0,0,1,2.6-2ZM27.5,6.1a2.8,2.8,0,0,1,2.8,2.8,2.734,2.734,0,0,1-2.8,2.8,2.8,2.8,0,0,1-2.8-2.8h0a2.862,2.862,0,0,1,2.8-2.8ZM3.7,21.4c0-1.3-.7-.8-.7-2.6,0-1.3,1.6-2.7,2.5-2.4.6.2,2.5,1.9,3.2,1.9.9,0,1.6-1.2.3-2L7,15c-.3-.2-.5-.3-.6-.5a2.794,2.794,0,0,1,1.9-3.4c.1,1.8,2.7,3.8,4.3,3.8.8,0,1.3.1,1.6-.5a.75.75,0,0,0,0-.9c-.4-.9-2.1-.1-3.3-1.6a2.754,2.754,0,0,1,.2-4A2.64,2.64,0,0,1,13,7.2c1.1,0,2,1.3,2.8.3.2-.3.4-.5.6-.8a2.6,2.6,0,0,1,3.8-.1l.3.3c.1.1.2.3.3.4V9c-3.8.9-5.4,4.9-3.3,5.2,1.3-.2.6-2.4,3.3-2.7v3.6c-1.7,0-3-.3-3,1.1,0,1.1,1.7.9,3,.9v4.1H17.7c-.3-3.5-5.9-5.2-5.9-3.2,0,.5,0,1.1.9,1.2a2.926,2.926,0,0,1,3,2.2c-1.7,0-3.9,2.6-3.9,4.3,0,.5-.1,1.7,1,1.7,1.7,0,.3-2.3,2.5-3.6a2.976,2.976,0,0,1,1.5-.5h4V25a6.117,6.117,0,0,0-1.2.5,5.017,5.017,0,0,0-1.5,1.4c-.6.8-2,3.9.1,3.9,1.4,0,.4-1.8,1.8-3.1a5.547,5.547,0,0,1,.8-.6v4.3c-.8.1-1.3.3-1.3,1.2,0,.6.6.8,1.3.9v1.8a3.312,3.312,0,0,1-1.7-2.4c-.1-.8-.1-1.2-.9-1.4-2.2-.4-1.3,4.9,2.6,5.9v3.3a2.7,2.7,0,0,1-.7.8,2.76,2.76,0,0,1-3,.3c-.8-.5-.7-.5-.7-1.6,0-3,.4-5.1-1.2-7.1a5.088,5.088,0,0,0-1.6-1.3,3.582,3.582,0,0,0-1.1-.4c-.7-.2-1.7-.4-2.1.3a1.183,1.183,0,0,0-.1,1c.3.9,1.1.5,1.9.8a3.269,3.269,0,0,1,1.5,1.1,3.552,3.552,0,0,1,.4.9,36.173,36.173,0,0,1,.1,5.7A2.807,2.807,0,0,1,10.4,40a2.663,2.663,0,0,1-.3-1.2c0-.7.9-1.4,1.6-2.1,1.3-1.3.2-2-.5-2-.6,0-1.2.8-1.6,1.2a9.266,9.266,0,0,0-1.4,1.4,3.465,3.465,0,0,1-1.6-.8c-1.8-1.8.3-3.4-1.2-4C4.1,32,3,31.8,3,29.4a2.92,2.92,0,0,1,.2-.9,5.109,5.109,0,0,0,4.5-4.6c0-.7.1-1.5-1.1-1.5-1.5,0-.2,2.2-2.4,3.6-1.1.7-1.8.5-2.3-.7a2.6,2.6,0,0,1,.6-2.9C3.1,22.2,3.7,22,3.7,21.4Z"/><path class="b" d="M45,28.4c1.2,2.4.1,5.5-2.7,7,0,4.8-3.6,5.6-4.8,5.7-.2.1.1.4-.4,1.7a5.256,5.256,0,0,1-6.9,2.8c-.2-.1-.3-.1-.5-.2a5.224,5.224,0,0,1-7.4-.4,5.372,5.372,0,0,1-1-1.6,5.26,5.26,0,0,1-6.1-.2,4.136,4.136,0,0,1-1.9.5,4.641,4.641,0,0,1-3.8-1.5,3.805,3.805,0,0,1-.9-1.3c-.7-1.6,0-1.3-.7-1.5A4.93,4.93,0,0,1,4,34.2,4.629,4.629,0,0,1,1.6,28,4.929,4.929,0,0,1,.4,22.5a5.938,5.938,0,0,1,.4-.8c.2-.2.6-.6.6-.7,0-.7-.9-1.7,0-3.8a4.9,4.9,0,0,1,3-2.8A4.584,4.584,0,0,1,8.2,9h.1a4.583,4.583,0,0,1,2.6-3.3,4.252,4.252,0,0,1,3.8-.2,5.685,5.685,0,0,1,3.4-1.8,5.614,5.614,0,0,1,3.1.9,5.557,5.557,0,0,1,5.3-3.4,5.141,5.141,0,0,1,3.8,2,5.377,5.377,0,0,1,4.3.2,4.836,4.836,0,0,1,2.8,3.8A5.169,5.169,0,0,1,41.9,13a.756.756,0,0,1-.1.4,5.453,5.453,0,0,1,3.3,3,5.123,5.123,0,0,1-.2,4.2C45.5,20.9,48.8,24.5,45,28.4ZM34.3,17.9A1.1,1.1,0,1,1,33.2,19,1,1,0,0,1,34.3,17.9Zm-3.9-4.4a.9.9,0,1,1-.9.9h0A.9.9,0,0,1,30.4,13.5ZM27.5,8a.9.9,0,1,1-.9.9h0C26.7,8.4,27,8,27.5,8Zm0,30.3a.9.9,0,1,1-.9.9,1.055,1.055,0,0,1,.9-.9Zm5-5a.9.9,0,1,1-.9.9.9.9,0,0,1,.9-.9ZM36,28.2a.9.9,0,1,1-.9.9.9.9,0,0,1,.9-.9Zm0-2a2.9,2.9,0,1,1-2.7,3.9H30.1a1.971,1.971,0,0,1-1.5-.3,11.985,11.985,0,0,1-1.2-1.1l-1.2-1.2c-.8-.8-.9-.8-2.2-.8h-.5c0,.8-.1,2.1-.1,3.2a6.181,6.181,0,0,0,.1,1.5h2a13.333,13.333,0,0,1,2,0,1.231,1.231,0,0,1,1,.5l.1.1.4.5c.2.2.3.4.5.5h.3a2.889,2.889,0,0,1,5.3,2.3,2.864,2.864,0,0,1-3.8,1.5,2.982,2.982,0,0,1-1.6-1.7h0a1.43,1.43,0,0,1-1.7-.7l-.2-.2-.6-.7H23.5v3.4c0,.2.1.3.4.6l.4.4c.2.3.3.3.6.2h0a2.823,2.823,0,1,1,1.5,3.7,3.123,3.123,0,0,1-1.6-1.6h-.2a2.769,2.769,0,0,1-.9-.1,2.092,2.092,0,0,1-.6-.4l.1,1.8a2.9,2.9,0,0,0,1,2.3,3.408,3.408,0,0,0,2.2.7c1.6-.1,1.9-1.3,2.9-1.7.7-.2,1,1.2,3.1,1.1a2.986,2.986,0,0,0,2.8-2.6,1.7,1.7,0,0,0,.1-.7,1.234,1.234,0,0,0-.4-.8c-1-2.6.6-2.2,2.4-.3l1.4-.7a3.313,3.313,0,0,0,1.4-3.4c-.1-.8-.8-1.3.3-1.7a3.552,3.552,0,0,0,.9-.4A2.568,2.568,0,0,0,43,31.5c1-3.2-2.2-2.4-.5-3.6a4.561,4.561,0,0,0,1.2-1.2,4.053,4.053,0,0,0,.5-.9,3.311,3.311,0,0,0-.6-3.3c-.3-.4-1.1-.6-1.1-1.2,0-1,.4-1,.6-1.7a3.015,3.015,0,0,0,.1-2.1,3.378,3.378,0,0,0-2.3-2.2c-2.1-.5-1.6-1-1.2-2.1a2.77,2.77,0,0,0-1.6-3.6c-1.2-.6-1.9-.2-2.4-.7a1,1,0,0,0-.5-.4,3.137,3.137,0,0,0-3.1-3.2H32c-1.2,0-2.2,1.5-3.1.3a5.5,5.5,0,0,0-.7-.9,3.018,3.018,0,0,0-4.3-.1l-.3.3a3.675,3.675,0,0,0-.7,2.5v.4a3.536,3.536,0,0,0,.1.6v.1a1.794,1.794,0,0,1,.7-.5,2.485,2.485,0,0,1,.8-.1h.2A3.6,3.6,0,0,0,24.5,9a3.553,3.553,0,0,0,.2,1h0c-.3,0-.3,0-.6.3l-.3.3a3.908,3.908,0,0,1-.5.4v4.2h1.9l.3-.3.4-.4.3-.3c.4-.5.6-.7,1.7-.7h.2a2.351,2.351,0,1,1,1.2,3.1,2.168,2.168,0,0,1-1.1-1h-.1a.735.735,0,0,0-.6.2l-.5.5a3.45,3.45,0,0,1-.9.8,1.986,1.986,0,0,1-1.1.1H23.3v4.1h1.1A12.094,12.094,0,0,1,26,19.7a7.637,7.637,0,0,0,.9-.9c.8-.9.9-.9,1.7-.8h2.8a2.972,2.972,0,0,1,3.7-1.6,2.844,2.844,0,0,1,1.6,3.7A2.972,2.972,0,0,1,33,21.7a3.123,3.123,0,0,1-1.6-1.6h-.2L31,20a7.387,7.387,0,0,0-2.1,0,2.623,2.623,0,0,0-.8.6L26.8,22c-1.3,1.5-1.7,1.5-2.7,1.4h-.6v1.3h.9c1.8,0,1.8,0,3,1.1l1.5,1.6.6.6.2.2h3.7a2.567,2.567,0,0,1,2.6-2ZM27.5,6.1a2.8,2.8,0,0,1,2.8,2.8,2.734,2.734,0,0,1-2.8,2.8,2.8,2.8,0,0,1-2.8-2.8h0a2.862,2.862,0,0,1,2.8-2.8ZM3.7,21.4c0-1.3-.7-.8-.7-2.6,0-1.3,1.6-2.7,2.5-2.4.6.2,2.5,1.9,3.2,1.9.9,0,1.6-1.2.3-2L7,15c-.3-.2-.5-.3-.6-.5a2.794,2.794,0,0,1,1.9-3.4c.1,1.8,2.7,3.8,4.3,3.8.8,0,1.3.1,1.6-.5a.75.75,0,0,0,0-.9c-.4-.9-2.1-.1-3.3-1.6a2.754,2.754,0,0,1,.2-4A2.64,2.64,0,0,1,13,7.2c1.1,0,2,1.3,2.8.3.2-.3.4-.5.6-.8a2.6,2.6,0,0,1,3.8-.1l.3.3c.1.1.2.3.3.4V9c-3.8.9-5.4,4.9-3.3,5.2,1.3-.2.6-2.4,3.3-2.7v3.6c-1.7,0-3-.3-3,1.1,0,1.1,1.7.9,3,.9v4.1H17.7c-.3-3.5-5.9-5.2-5.9-3.2,0,.5,0,1.1.9,1.2a2.926,2.926,0,0,1,3,2.2c-1.7,0-3.9,2.6-3.9,4.3,0,.5-.1,1.7,1,1.7,1.7,0,.3-2.3,2.5-3.6a2.976,2.976,0,0,1,1.5-.5h4V25a6.117,6.117,0,0,0-1.2.5,5.017,5.017,0,0,0-1.5,1.4c-.6.8-2,3.9.1,3.9,1.4,0,.4-1.8,1.8-3.1a5.547,5.547,0,0,1,.8-.6v4.3c-.8.1-1.3.3-1.3,1.2,0,.6.6.8,1.3.9v1.8a3.312,3.312,0,0,1-1.7-2.4c-.1-.8-.1-1.2-.9-1.4-2.2-.4-1.3,4.9,2.6,5.9v3.3a2.7,2.7,0,0,1-.7.8,2.76,2.76,0,0,1-3,.3c-.8-.5-.7-.5-.7-1.6,0-3,.4-5.1-1.2-7.1a5.088,5.088,0,0,0-1.6-1.3,3.582,3.582,0,0,0-1.1-.4c-.7-.2-1.7-.4-2.1.3a1.183,1.183,0,0,0-.1,1c.3.9,1.1.5,1.9.8a3.269,3.269,0,0,1,1.5,1.1,3.552,3.552,0,0,1,.4.9,36.173,36.173,0,0,1,.1,5.7A2.807,2.807,0,0,1,10.4,40a2.663,2.663,0,0,1-.3-1.2c0-.7.9-1.4,1.6-2.1,1.3-1.3.2-2-.5-2-.6,0-1.2.8-1.6,1.2a9.266,9.266,0,0,0-1.4,1.4,3.465,3.465,0,0,1-1.6-.8c-1.8-1.8.3-3.4-1.2-4C4.1,32,3,31.8,3,29.4a2.92,2.92,0,0,1,.2-.9,5.109,5.109,0,0,0,4.5-4.6c0-.7.1-1.5-1.1-1.5-1.5,0-.2,2.2-2.4,3.6-1.1.7-1.8.5-2.3-.7a2.6,2.6,0,0,1,.6-2.9C3.1,22.2,3.7,22,3.7,21.4Z"/><path class="c" d="M51.9,23.7a11.409,11.409,0,0,1,.7-4.1,9.131,9.131,0,0,1,2-3.3A12.44,12.44,0,0,1,57.8,14a10,10,0,0,1,4.3-.8,12.921,12.921,0,0,1,2.9.3,25.824,25.824,0,0,1,2.6.8l-1.2,4.5a8.447,8.447,0,0,0-1.7-.5,6.816,6.816,0,0,0-2.1-.2,4.2,4.2,0,0,0-3.7,1.6,6.452,6.452,0,0,0-1.2,4.1A6.562,6.562,0,0,0,58.9,28c.8,1,2.1,1.5,4,1.5a17.96,17.96,0,0,0,2.2-.2,7.945,7.945,0,0,0,2.2-.6l.8,4.6a12.641,12.641,0,0,1-2.5.7,16.857,16.857,0,0,1-3.3.3,13.19,13.19,0,0,1-4.7-.8,8.306,8.306,0,0,1-3.2-2.2A8.944,8.944,0,0,1,52.5,28,15.4,15.4,0,0,1,51.9,23.7Z"/><path class="c" d="M87.3,23.7a11.765,11.765,0,0,1-.7,4.3,9.131,9.131,0,0,1-2,3.3,9.451,9.451,0,0,1-3.1,2.1,10.571,10.571,0,0,1-4,.8,10.191,10.191,0,0,1-4-.8,9.451,9.451,0,0,1-3.1-2.1,9.131,9.131,0,0,1-2-3.3,11.765,11.765,0,0,1-.7-4.3,11.765,11.765,0,0,1,.7-4.3,9.334,9.334,0,0,1,2.1-3.3A9.451,9.451,0,0,1,73.6,14a10.065,10.065,0,0,1,3.9-.8,10.571,10.571,0,0,1,4,.8,9.451,9.451,0,0,1,3.1,2.1,9.131,9.131,0,0,1,2,3.3A11.765,11.765,0,0,1,87.3,23.7Zm-5.7,0a7.121,7.121,0,0,0-1-4.1,3.75,3.75,0,0,0-6,0,7.115,7.115,0,0,0-1.1,4.1,7.7,7.7,0,0,0,1.1,4.2,3.75,3.75,0,0,0,6,0A8.684,8.684,0,0,0,81.6,23.7Z"/><path class="c" d="M107.4,32.1c0,3.4-.9,5.8-2.6,7.5-1.7,1.6-4.3,2.4-7.9,2.4a23.079,23.079,0,0,1-3.7-.3,19.953,19.953,0,0,1-3.5-.9l1-4.9a24.575,24.575,0,0,0,2.9.9,17.191,17.191,0,0,0,3.4.3,4.719,4.719,0,0,0,3.5-1.1,3.857,3.857,0,0,0,1-2.8v-.7a6.971,6.971,0,0,1-1.9.6,14.979,14.979,0,0,1-2.2.2c-2.8,0-5-.8-6.5-2.5a10.171,10.171,0,0,1-2.3-7,10.7,10.7,0,0,1,.7-4.1,11.555,11.555,0,0,1,2-3.2,7.934,7.934,0,0,1,3.3-2,12.317,12.317,0,0,1,4.4-.7,16.95,16.95,0,0,1,2.2.1c.7.1,1.5.2,2.2.3a15.525,15.525,0,0,1,2.1.4c.7.1,1.3.3,1.8.4V32.1ZM94.7,23.8c0,3.2,1.3,4.9,3.9,4.9a8.807,8.807,0,0,0,1.7-.2,8.93,8.93,0,0,0,1.3-.5V18.7a3.083,3.083,0,0,0-1-.1c-.4,0-.8-.1-1.4-.1A3.937,3.937,0,0,0,95.8,20,5.56,5.56,0,0,0,94.7,23.8Z"/><path class="c" d="M118.4,35.1a14.727,14.727,0,0,1-4.1-.5,5.473,5.473,0,0,1-2.5-1.4,4.767,4.767,0,0,1-1.2-2.2,13.576,13.576,0,0,1-.3-2.9V5.4l5.8-.9V26.8a6.15,6.15,0,0,0,.1,1.4,3.582,3.582,0,0,0,.4,1.1,1.978,1.978,0,0,0,1,.7,6.073,6.073,0,0,0,1.7.4Z"/><path class="c" d="M137.6,14.2c-1.2,4-2.4,7.7-3.7,11.1-1.3,3.5-2.7,6.8-4.2,10.1a20.382,20.382,0,0,1-1.6,3,6.969,6.969,0,0,1-1.8,2,9.409,9.409,0,0,1-2.2,1.2,11.935,11.935,0,0,1-2.9.4,9.518,9.518,0,0,1-2.5-.3,14.5,14.5,0,0,1-1.9-.6l1-4.6a5.349,5.349,0,0,0,1.6.4,7.569,7.569,0,0,0,1.5.1,3.649,3.649,0,0,0,2.4-.8,6.423,6.423,0,0,0,1.4-2.3c-1.3-2.6-2.7-5.5-4-8.8A98.791,98.791,0,0,1,117,14.2h6.2q.45,1.5.9,3.3c.4,1.2.7,2.4,1.1,3.6s.8,2.4,1.2,3.5.8,2.2,1.2,3.1c.3-.9.7-2,1.1-3.1s.7-2.3,1.1-3.5.7-2.4,1-3.6.6-2.3.9-3.3h5.9Z"/><path class="c" d="M137.8,9.1l5.8-.9v6h7V19h-7v7.2a5.96,5.96,0,0,0,.6,2.9,2.805,2.805,0,0,0,2.6,1.1,12.252,12.252,0,0,0,1.9-.2,7.756,7.756,0,0,0,1.8-.5l.8,4.5a15.457,15.457,0,0,1-2.3.7,14.492,14.492,0,0,1-3.2.3,10.65,10.65,0,0,1-3.9-.6,5.768,5.768,0,0,1-2.5-1.8,6.582,6.582,0,0,1-1.3-2.8,19.816,19.816,0,0,1-.4-3.6V9.1Z"/><path class="c" d="M158.9,8.3a3.04,3.04,0,0,1-1,2.5,3.65,3.65,0,0,1-4.8,0,3.04,3.04,0,0,1-1-2.5,3.04,3.04,0,0,1,1-2.5,3.65,3.65,0,0,1,4.8,0A3.04,3.04,0,0,1,158.9,8.3Zm-.5,26.4h-5.8V14.2h5.8Z"/><path class="c" d="M169,19.3l4-5.6h5.9L172,23.4a49.43,49.43,0,0,1,4.2,5.4q1.8,2.7,3,4.8H173c-.2-.4-.5-.9-.8-1.4a16.181,16.181,0,0,0-1-1.8c-.4-.6-.8-1.1-1.2-1.6l-1.2-1.2a11.985,11.985,0,0,0-1.2,1.1,5.826,5.826,0,0,0-1.1,1.5,16.181,16.181,0,0,0-1,1.8c-.3.6-.6,1.1-.9,1.6h-5.8a13.809,13.809,0,0,1,1.3-2.2c.5-.9,1.1-1.8,1.7-2.7s1.3-1.8,2-2.7,1.4-1.7,2.1-2.5q-1.8-2.7-3.6-5.1c-1.1-1.6-2.3-3.2-3.4-4.8H165Z"/></g></svg>